<?xml version="1.0" encoding="utf-8"?>
<!-- Generator: Adobe Illustrator 19.0.0, SVG Export Plug-In . SVG Version: 6.00 Build 0)  -->
<svg version="1.1" id="Layer_1" xmlns="http://www.w3.org/2000/svg" xmlns:xlink="http://www.w3.org/1999/xlink" x="0px" y="0px"
	 viewBox="0 0 300 300" style="enable-background:new 0 0 300 300;" xml:space="preserve">
<style type="text/css">
	.st0{fill:#6BCAEB;}
	.st1{fill-rule:evenodd;clip-rule:evenodd;fill:#FFFFFF;}
	.st2{fill:#BCBEC0;}
</style>
<g id="XMLID_1_">
	<g id="XMLID_28_">
		<path id="XMLID_13_" class="st0" d="M251.6,181.4c0,22.2-18,40.3-40.3,40.3H88.6c-22.2,0-40.3-18-40.3-40.3V58.7
			c0-22.2,18-40.3,40.3-40.3h122.7c22.2,0,40.3,18,40.3,40.3V181.4z"/>
		<path id="XMLID_12_" class="st1" d="M167.2,137.1c0.4-1.5-0.1-2.7-0.4-3.9c-8.7-37.2,11.7-76.9,46.9-91.5c5.6-2.3,11.1-0.8,14,3.8
			c2.8,4.5,1.9,10.1-2.1,13.5c-0.9,0.7-2,1.3-3.1,1.8c-31.2,13.1-45.3,48.8-31.5,79.7c3.2,7.2,2.4,13.4-2.6,18.2
			c-4.5,4.4-10.7,5.2-17.7,2.1c-31.3-13.7-66.7,0.5-79.9,31.9c-2.4,5.7-8.4,8.3-13.8,6c-5.4-2.3-8-8.2-5.6-13.8
			c10.7-24.9,29.1-40.9,55.2-47.8c12.6-3.3,25.2-3.1,37.9-0.4C165.5,136.9,166.3,136.9,167.2,137.1z"/>
	</g>
	<g id="XMLID_16_">
		<rect id="XMLID_11_" x="56.1" y="237.1" class="st2" width="7.4" height="44.5"/>
		<rect id="XMLID_10_" x="56.1" y="255.7" class="st2" width="44.5" height="7.4"/>
		<rect id="XMLID_9_" x="156.2" y="237.1" class="st2" width="44.5" height="7.4"/>
		<rect id="XMLID_8_" x="93.2" y="237.1" class="st2" width="7.4" height="44.5"/>
		<rect id="XMLID_7_" x="174.7" y="237.1" class="st2" width="7.4" height="44.5"/>
		<rect id="XMLID_6_" x="105.7" y="248.5" class="st2" width="7.4" height="33.1"/>
		<rect id="XMLID_5_" x="105.7" y="237.1" class="st0" width="7.4" height="7.4"/>
		<path id="XMLID_18_" class="st2" d="M222.8,237.1c-12.3,0-22.2,9.9-22.2,22.2c0,12.3,9.9,22.2,22.2,22.2
			c12.3,0,22.2-9.9,22.2-22.2C245.1,247.1,235.1,237.1,222.8,237.1z M222.8,274.2c-8.2,0-14.8-6.6-14.8-14.8
			c0-8.2,6.6-14.8,14.8-14.8c8.2,0,14.8,6.6,14.8,14.8C237.6,267.6,231,274.2,222.8,274.2z"/>
		<path id="XMLID_3_" class="st2" d="M140.1,244.6h7.4h3.7v-7.4h-3.7h-7.4c-12.3,0-22.2,9.9-22.2,22.2c0,12.3,10,22.2,22.2,22.2h7.4
			h3.7v-7.4h-3.7h-7.4c-8.2,0-14.8-6.6-14.8-14.8C125.3,251.2,131.9,244.6,140.1,244.6z"/>
	</g>
</g>
</svg>
